<!-- Generated by IcoMoon.io -->
<svg version="1.1" xmlns="http://www.w3.org/2000/svg" width="40" height="40" viewBox="0 0 40 40">
<title>user-solid-circle</title>
<path d="M20 40c-11.046 0-20-8.954-20-20s8.954-20 20-20v0c11.046 0 20 8.954 20 20s-8.954 20-20 20v0zM14 12v4c0 3.314 2.686 6 6 6s6-2.686 6-6v0-4c0-3.314-2.686-6-6-6s-6 2.686-6 6v0zM6.7 28.88c2.912 4.31 7.779 7.106 13.3 7.106s10.388-2.796 13.264-7.049l0.036-0.057c-3.903-1.836-8.476-2.907-13.3-2.907s-9.397 1.071-13.496 2.989l0.196-0.082z"></path>
</svg>
